<svg version="1.1" xmlns="http://www.w3.org/2000/svg" >
<symbol id="icon-equality" viewBox="0 0 512 512">
<path d="M0 0 C3.13235467 1.39131288 5.77120252 3.23411438 8.51538086 5.27441406 C29.2648462 20.68246179 52.75503827 30.81743527 78.66015625 33.1015625 C79.58535065 33.18401215 80.51054504 33.26646179 81.46377563 33.35140991 C94.54382695 34.40738307 107.67277486 34.45638567 120.78790283 34.60089111 C124.3222294 34.64171752 127.85641474 34.69243957 131.390625 34.7421875 C138.26031208 34.83749825 145.1300912 34.9223384 152 35 C153.78009917 40.67594104 154.77220616 46.29660698 155.62890625 52.17700195 C155.77913585 53.18227212 155.92936544 54.18754229 156.08414745 55.22327518 C156.58159948 58.56093579 157.07216997 61.89956751 157.5625 65.23828125 C157.91345534 67.60589067 158.26472432 69.97345362 158.61628723 72.3409729 C159.5565672 78.68428865 160.4900717 85.02858287 161.42145157 91.37321091 C161.99974361 95.31075428 162.57956034 99.24807048 163.15975952 103.18533325 C167.7491382 134.34440214 172.29273787 165.50937069 176.51263428 196.72091293 C176.80569626 198.88720719 177.10013752 201.05331046 177.39477539 203.21939087 C179.41067432 218.07254859 181.27534575 232.940909 182.96185875 247.83496284 C183.13760886 249.38699476 183.31461282 250.93888533 183.49302101 252.49061394 C187.54448791 287.89094382 187.54448791 287.89094382 178.88671875 299.94140625 C170.4335642 310.01612508 161.42212797 318.03717187 151 326 C150.34757324 326.50257324 149.69514648 327.00514648 149.02294922 327.52294922 C139.96120083 334.49608322 130.72404517 340.98324705 121 347 C122.32308351 350.58622125 123.91427493 353.62984109 126.01953125 356.81640625 C126.92469482 358.19445435 126.92469482 358.19445435 127.84814453 359.6003418 C128.82050049 361.06661011 128.82050049 361.06661011 129.8125 362.5625 C131.18117703 364.64310587 132.54966331 366.72383724 133.91796875 368.8046875 C134.60552246 369.8472168 135.29307617 370.88974609 136.00146484 371.96386719 C138.8948936 376.35950365 141.76090493 380.77271841 144.625 385.1875 C145.6913491 386.82816215 146.75775524 388.46878722 147.82421875 390.109375 C149.95475374 393.38873431 152.08193659 396.67023796 154.20703125 399.953125 C155.28367812 401.61469742 156.36050084 403.27615591 157.4375 404.9375 C157.96190674 405.74711182 158.48631348 406.55672363 159.02661133 407.39086914 C161.95842636 411.90378764 164.92483473 416.3908012 167.9296875 420.85546875 C168.57752197 421.81912354 169.22535645 422.78277832 169.89282227 423.77563477 C171.15214333 425.64483687 172.41552078 427.51131385 173.68334961 429.37475586 C174.24803955 430.21272705 174.81272949 431.05069824 175.39453125 431.9140625 C176.15020386 433.0270874 176.15020386 433.0270874 176.92114258 434.16259766 C178 436 178 436 178 438 C177.20788116 437.901996 176.41576233 437.803992 175.59963989 437.70301819 C168.09766218 436.77505448 160.59554702 435.84821329 153.09327888 434.92260075 C149.23724055 434.44681231 145.3812549 433.97060541 141.52539062 433.4934082 C137.7972529 433.03203449 134.06897555 432.57180436 130.34060287 432.1123333 C128.92536367 431.93772694 127.51017337 431.76272364 126.09503555 431.58729744 C118.40439732 430.63421251 110.71652116 429.71781095 103 429 C102.66618317 429.89758026 102.33236633 430.79516052 101.98843384 431.71994019 C98.84552678 440.16852707 95.69687 448.61495109 92.54253578 457.05927849 C90.92095431 461.40090901 89.3014254 465.74328243 87.68652344 470.08740234 C86.12868981 474.27777883 84.56554846 478.46613909 82.99866867 482.65314102 C82.40109191 484.25284951 81.80544829 485.85328148 81.21175003 487.45443344 C80.38142437 489.69274589 79.5443324 491.92841351 78.70556641 494.16357422 C78.46028702 494.82963684 78.21500763 495.49569946 77.96229553 496.1819458 C76.90815169 498.97198844 76.13539765 500.86460235 74 503 C68.80483028 493.8715364 63.73119381 484.68455503 58.75 475.4375 C54.51033719 467.56904123 50.18478673 459.76001317 45.75 452 C39.49259381 441.044926 33.59024331 429.91008652 27.73535156 418.73632812 C27.38426834 418.06912247 27.03318512 417.40191681 26.67146301 416.7144928 C25.7145356 414.89555845 24.76131301 413.07467638 23.80834961 411.25366211 C22.01640152 408.02951033 20.08808275 405.0364527 18 402 C17.28972656 402.16226074 16.57945312 402.32452148 15.84765625 402.49169922 C12.97824503 403.00388322 10.34961262 403.1293457 7.4375 403.1328125 C5.87128906 403.13474609 5.87128906 403.13474609 4.2734375 403.13671875 C3.19320312 403.13285156 2.11296875 403.12898438 1 403.125 C-0.62035156 403.13080078 -0.62035156 403.13080078 -2.2734375 403.13671875 C-3.31757813 403.13542969 -4.36171875 403.13414062 -5.4375 403.1328125 C-6.38496094 403.13168457 -7.33242187 403.13055664 -8.30859375 403.12939453 C-10.96758753 403.00155829 -13.40832307 402.59206413 -16 402 C-20.89166025 410.3941481 -25.58142236 418.8836503 -30.1875 427.4375 C-34.44753214 435.34802073 -38.79144295 443.19978539 -43.25 451 C-49.47410829 461.89870209 -55.34970455 472.9734363 -61.17675781 484.08789062 C-64.56846282 490.54115472 -68.00608085 496.89211193 -72 503 C-74.61056423 500.38943577 -75.27946586 497.92449865 -76.546875 494.44921875 C-76.79490372 493.77476715 -77.04293243 493.10031555 -77.29847717 492.40542603 C-77.83764537 490.93771062 -78.37433135 489.46908157 -78.90884399 487.99966431 C-80.3436581 484.05565636 -81.79624749 480.11818854 -83.24609375 476.1796875 C-83.54831345 475.35710953 -83.85053314 474.53453156 -84.16191101 473.68702698 C-87.64991115 464.2053606 -91.22873902 454.75829291 -94.8125 445.3125 C-95.35156518 443.89126057 -95.89061639 442.47001584 -96.42965698 441.04876709 C-97.95296542 437.03245857 -99.47644783 433.01621607 -101 429 C-102.36516251 429.17245995 -102.36516251 429.17245995 -103.75790405 429.34840393 C-112.32131998 430.42911152 -120.88544645 431.50395883 -129.45042992 432.57217503 C-133.85408844 433.12160626 -138.25743537 433.67332571 -142.66015625 434.23022461 C-146.90643335 434.76725037 -151.15341506 435.29833057 -155.40095901 435.82523918 C-157.02399024 436.02764801 -158.64675273 436.23222346 -160.26923752 436.43896675 C-162.53608456 436.72744684 -164.80375177 437.00831353 -167.07177734 437.28735352 C-168.36417328 437.44945816 -169.65656921 437.61156281 -170.98812866 437.77857971 C-174 438 -174 438 -176 437 C-167.9386118 423.8878649 -159.50818366 411.02186684 -151.06591797 398.15332031 C-148.11622414 393.65104598 -145.18126252 389.13928876 -142.25 384.625 C-141.73598633 383.83367676 -141.22197266 383.04235352 -140.69238281 382.22705078 C-139.12795586 379.81822808 -137.56393707 377.40914078 -136 375 C-133.6463051 371.37469339 -131.29203449 367.74976136 -128.9375 364.125 C-128.1326416 362.88484131 -128.1326416 362.88484131 -127.31152344 361.61962891 C-126.80524414 360.84022949 -126.29896484 360.06083008 -125.77734375 359.2578125 C-125.30409668 358.5246582 -124.83084961 357.79150391 -124.34326172 357.03613281 C-123.48983142 355.74249256 -122.61345667 354.46348312 -121.70751953 353.20605469 C-120.43729742 351.48403872 -120.43729742 351.48403872 -119 349 C-120.31819615 345.04541156 -122.72438743 344.04556349 -126.125 342 C-138.07282204 334.56373743 -149.28627223 326.12225519 -160 317 C-160.85207031 316.28328125 -161.70414063 315.5665625 -162.58203125 314.828125 C-170.85107724 307.66415889 -181.6327766 298.07597531 -183.35748291 286.62693787 C-183.47347516 284.01040551 -183.46036061 281.43056535 -183.38671875 278.8125 C-183.37154709 277.84763672 -183.35637543 276.88277344 -183.34074402 275.88867188 C-183.10690167 265.85028199 -182.0646808 255.95472855 -180.8125 246 C-180.55210187 243.86239372 -180.29176987 241.72477939 -180.03149414 239.5871582 C-173.28842596 184.96794514 -165.38866862 130.47334134 -157.18263626 76.05749893 C-156.75055133 73.19115738 -156.31967082 70.32463649 -155.8888855 67.45809937 C-155.21772484 62.9970519 -154.54154641 58.53679443 -153.86093712 54.07717896 C-153.61185528 52.44223458 -153.36405338 50.80709465 -153.11759377 49.17175293 C-152.78262099 46.95264868 -152.44241283 44.73441465 -152.10058594 42.51635742 C-151.91107361 41.27432053 -151.72156128 40.03228363 -151.52630615 38.75260925 C-151 36 -151 36 -150 35 C-148.21462929 34.88704134 -146.42484833 34.84317864 -144.63598633 34.82641602 C-142.91071465 34.80618126 -142.91071465 34.80618126 -141.15058899 34.78553772 C-139.26040291 34.76988014 -139.26040291 34.76988014 -137.33203125 34.75390625 C-135.34312792 34.72937661 -133.35422467 34.70483578 -131.36532879 34.67970943 C-126.46588741 34.619345 -121.56634228 34.56929286 -116.66674805 34.52319336 C-96.63587043 34.34377897 -96.63587043 34.34377897 -76.6484375 33.09765625 C-75.80694656 33.02237198 -74.96545563 32.94708771 -74.09846497 32.86952209 C-46.92279141 30.11442037 -20.33039866 18.17880139 0 0 Z M-5.8125 25.875 C-17.98418619 33.8965889 -31.24651402 40.17353922 -45.1875 44.4375 C-45.9088916 44.66010498 -46.6302832 44.88270996 -47.37353516 45.11206055 C-49.90114145 45.83008653 -52.43530732 46.42740034 -55 47 C-56.14597656 47.26417725 -57.29195313 47.52835449 -58.47265625 47.80053711 C-73.27052324 50.88161893 -88.39529318 50.55847809 -103.44036865 50.66955566 C-107.12182304 50.69979475 -110.8030747 50.74617065 -114.484375 50.79101562 C-121.65614746 50.87608941 -128.82793638 50.94385002 -136 51 C-151.09481152 150.54795986 -151.09481152 150.54795986 -164.1875 250.375 C-164.28886261 251.1933432 -164.39022522 252.0116864 -164.49465942 252.85482788 C-165.51394059 261.15955127 -166.18408394 269.40740343 -166.3046875 277.77734375 C-166.32359543 278.5248288 -166.34250336 279.27231384 -166.36198425 280.04244995 C-166.36410573 285.63811699 -165.06201831 288.97626665 -161.21484375 292.98046875 C-160.11849609 293.98013672 -160.11849609 293.98013672 -159 295 C-157.91422004 296.11607516 -156.82971286 297.23338921 -155.74609375 298.3515625 C-152.11552906 301.98405552 -148.22918949 305.10959868 -144.125 308.1875 C-143.38813965 308.74429443 -142.6512793 309.30108887 -141.89208984 309.87475586 C-109.9899275 333.84373762 -75.29001449 353.52624751 -40.25 372.5 C-39.19135742 373.07548584 -38.13271484 373.65097168 -37.04199219 374.24389648 C-24.54637261 380.96873633 -13.70650286 386.35259688 0.6875 386.375 C1.49638672 386.39949219 2.30527344 386.42398437 3.13867188 386.44921875 C15.83903592 386.50879825 26.83354705 380.96718157 37.8125 375.125 C39.07823008 374.46116058 40.3441018 373.79759115 41.61010742 373.13427734 C52.75055546 367.26308528 63.61406611 360.93996034 74.4375 354.50585938 C78.026902 352.39653854 81.66677669 350.3847332 85.3125 348.375 C94.44550357 343.2971774 103.23304555 337.6806838 112 332 C112.75571289 331.51128418 113.51142578 331.02256836 114.29003906 330.51904297 C131.12667585 319.58582963 147.80378492 308.28071637 162 294 C162.70125 293.37609375 163.4025 292.7521875 164.125 292.109375 C167.63867882 288.49809399 168.27056784 285.26418795 168.30111694 280.25479126 C168.29069366 279.51071014 168.28027039 278.76662903 168.26953125 278 C168.26233063 277.20459808 168.25513 276.40919617 168.24771118 275.58969116 C168.07945843 266.19834693 167.02141176 256.93906462 165.875 247.625 C165.69076477 246.08998337 165.69076477 246.08998337 165.50280762 244.5239563 C157.71598984 179.85251864 148.02343221 115.35872961 138 51 C137.25070221 50.99413376 136.50140442 50.98826752 135.72940063 50.98222351 C128.58275286 50.92372753 121.43643146 50.85134073 114.29007912 50.76428509 C110.61821411 50.7200199 106.94644898 50.68067503 103.27441406 50.65356445 C71.85502409 50.41431023 71.85502409 50.41431023 57 47 C56.05543945 46.79205811 55.11087891 46.58411621 54.13769531 46.36987305 C51.83249559 45.81871909 49.57825429 45.19436056 47.3125 44.5 C46.50490234 44.25427246 45.69730469 44.00854492 44.86523438 43.75537109 C30.44837259 39.11353688 16.26556409 32.28980508 4.01171875 23.36328125 C-0.0761195 20.5930763 -2.12925491 23.34959589 -5.8125 25.875 Z M-104 357 C-105.52525162 359.09484767 -106.82439092 361.14317436 -108.125 363.375 C-109.00999885 364.84167148 -109.89826772 366.30637272 -110.7890625 367.76953125 C-111.28954102 368.59275879 -111.79001953 369.41598633 -112.30566406 370.26416016 C-115.60596176 375.59314228 -119.06158484 380.82205165 -122.5 386.0625 C-123.24039128 387.19379823 -123.98070741 388.32514565 -124.72094727 389.45654297 C-127.89457378 394.29920932 -131.07809116 399.13389435 -134.31640625 403.93359375 C-134.78949219 404.63540771 -135.26257813 405.33722168 -135.75 406.06030273 C-136.59841207 407.31414089 -137.45100047 408.56516772 -138.30859375 409.81274414 C-140.38132734 412.64963011 -140.38132734 412.64963011 -141 416 C-129.62004001 415.38057851 -118.41059175 413.97004539 -107.125 412.4375 C-105.35812524 412.20078097 -103.59119841 411.96445035 -101.82421875 411.72851562 C-97.54886705 411.15680834 -93.27424925 410.57988955 -89 410 C-88.82744186 410.60395599 -88.65488373 411.20791199 -88.47709656 411.83016968 C-86.65816863 418.05988251 -84.5421352 424.1109798 -82.20703125 430.1640625 C-81.85613937 431.08214691 -81.5052475 432.00023132 -81.14372253 432.94613647 C-80.03666682 435.84038789 -78.92467673 438.73271312 -77.8125 441.625 C-77.05500958 443.60273862 -76.29784512 445.58060212 -75.54101562 447.55859375 C-73.69777141 452.37384612 -71.85010343 457.18737912 -70 462 C-66.99087969 458.44402875 -64.72211965 454.88287875 -62.56640625 450.7578125 C-62.09469246 449.86250572 -62.09469246 449.86250572 -61.6134491 448.94911194 C-60.9407049 447.67174679 -60.2701732 446.39321432 -59.60168457 445.11361694 C-57.83607245 441.73488493 -56.05390834 438.36494523 -54.26953125 434.99609375 C-53.73173538 433.98029991 -53.73173538 433.98029991 -53.18307495 432.94398499 C-49.32873325 425.69154602 -45.2802521 418.55386768 -41.16235352 411.44775391 C-38.08391614 406.09364285 -35.38123252 400.69992414 -33 395 C-33.84369141 394.55833496 -34.68738281 394.11666992 -35.55664062 393.66162109 C-51.80273093 385.14554876 -67.92264328 376.50763688 -83.703125 367.1484375 C-84.55583984 366.64280273 -85.40855469 366.13716797 -86.28710938 365.61621094 C-88.27180487 364.43382395 -90.25160398 363.24320739 -92.22851562 362.04785156 C-93.30294922 361.40557617 -94.37738281 360.76330078 -95.484375 360.1015625 C-96.46631836 359.50939941 -97.44826172 358.91723633 -98.45996094 358.30712891 C-100.96847885 356.77121207 -100.96847885 356.77121207 -104 357 Z M98.4765625 359.5 C97.55222412 360.04962402 96.62788574 360.59924805 95.67553711 361.16552734 C94.16552124 362.07359131 94.16552124 362.07359131 92.625 363 C83.1458795 368.61720271 73.59325631 374.06768405 63.9375 379.375 C63.31994843 379.71466797 62.70239685 380.05433594 62.06613159 380.40429688 C53.08256082 385.34155164 44.07611874 390.23464577 35 395 C44.08530269 413.67847944 54.07050031 431.89912402 64.25 450 C64.79873779 450.97912354 65.34747559 451.95824707 65.9128418 452.96704102 C66.42113525 453.86479248 66.92942871 454.76254395 67.453125 455.6875 C68.12069824 456.86892578 68.12069824 456.86892578 68.80175781 458.07421875 C69.98173886 460.13294936 69.98173886 460.13294936 72 462 C73.74224122 457.45111587 75.48373559 452.90194669 77.22460938 448.35253906 C77.81393443 446.81275157 78.40344537 445.27303521 78.99316406 443.73339844 C80.71295755 439.24315264 82.42895466 434.75148697 84.13977051 430.2578125 C84.7213437 428.73137887 85.30397305 427.2053473 85.88757324 425.6796875 C86.73822042 423.45435582 87.58448914 421.22740594 88.4296875 419 C88.68928253 418.32324219 88.94887756 417.64648438 89.21633911 416.94921875 C90.55535148 413.56924204 90.55535148 413.56924204 91 410 C91.57771652 410.07516846 92.15543304 410.15033691 92.75065613 410.2277832 C98.76858418 411.01016079 104.78707411 411.78810058 110.8059082 412.56347656 C113.05149793 412.85335559 115.29694237 413.14436234 117.54223633 413.43652344 C120.77127062 413.85649074 124.00080719 414.27238762 127.23046875 414.6875 C128.73386055 414.88436401 128.73386055 414.88436401 130.2676239 415.08520508 C131.20822159 415.20532959 132.14881927 415.3254541 133.11791992 415.44921875 C133.94176682 415.55580811 134.76561371 415.66239746 135.61442566 415.7722168 C138.09076151 416.00866623 140.51394647 416.03899068 143 416 C141.48239025 411.63584656 139.1599187 408.03020315 136.5625 404.25 C135.65260485 402.9056519 134.74378941 401.56057252 133.8359375 400.21484375 C133.36639648 399.51987793 132.89685547 398.82491211 132.41308594 398.10888672 C130.13080701 394.70281806 127.90802178 391.25903199 125.6875 387.8125 C122.61760342 383.0510164 119.54261764 378.29313978 116.44921875 373.546875 C115.85471924 372.63446045 115.26021973 371.7220459 114.64770508 370.78198242 C113.48296623 368.99517262 112.3174621 367.20886139 111.15112305 365.4230957 C110.62429932 364.61445068 110.09747559 363.80580566 109.5546875 362.97265625 C109.08530762 362.25343994 108.61592773 361.53422363 108.13232422 360.79321289 C107 359 107 359 106 357 C102.52818339 357 101.41356074 357.73204108 98.4765625 359.5 Z " fill="currentColor"  transform="translate(255,5)"/>
<path d="M0 0 C3.19934143 1.54161007 6.32907652 3.16155309 9.43652344 4.88012695 C44.91309392 24.49155759 82.61375993 25.44602829 122.12109375 26.50390625 C124.99030156 43.24932935 127.57575275 60.02244286 129.984375 76.83984375 C130.3429832 79.33461203 130.70164234 81.829373 131.06034851 84.3241272 C131.80941875 89.53936586 132.55615717 94.75493248 133.30151367 99.97070312 C134.04637719 105.18261774 134.79598274 110.39382978 135.54956055 115.60449219 C139.68374179 144.19776468 143.64247845 172.80534216 147.1640625 201.48046875 C147.31684473 202.70391369 147.46962696 203.92735863 147.62703896 205.18787766 C151.8237436 238.94510304 151.8237436 238.94510304 148.29972839 244.24111938 C145.79938131 246.98859307 143.04859254 249.24036756 140.12109375 251.50390625 C138.88362748 252.50721201 137.64667484 253.5111515 136.41015625 254.515625 C105.71258954 279.00116738 70.51470051 298.57497676 35.95898438 316.98876953 C33.17968461 318.47262486 30.4077521 319.96952679 27.63671875 321.46875 C25.94433076 322.37689932 24.25163922 323.28448325 22.55859375 324.19140625 C21.80344482 324.60165039 21.0482959 325.01189453 20.27026367 325.43457031 C13.05024769 329.26930836 6.51339687 330.86491604 -1.62890625 330.87890625 C-2.36367187 330.90339844 -3.0984375 330.92789062 -3.85546875 330.953125 C-14.71476772 331.00948814 -24.19196913 325.58359075 -33.56640625 320.62890625 C-35.17793579 319.78440918 -35.17793579 319.78440918 -36.82202148 318.92285156 C-46.52480991 313.7886216 -56.00078424 308.29465387 -65.4453125 302.703125 C-69.27071629 300.43878707 -73.11958718 298.23426469 -77.0144043 296.09204102 C-103.28786347 281.63940229 -128.88470698 264.96456502 -150.87890625 244.50390625 C-151.41018127 244.08307266 -151.9414563 243.66223907 -152.48883057 243.22865295 C-156.84667568 237.82162434 -153.74085766 225.533193 -153.03474045 218.94442272 C-152.38312022 213.19999105 -151.67285868 207.46329262 -150.95703125 201.7265625 C-150.80329292 200.47385118 -150.6495546 199.22113987 -150.49115753 197.93046761 C-146.89273676 168.62256187 -142.75138702 139.39264812 -138.52746725 110.16941321 C-137.71541585 104.54840609 -136.9102863 98.92642397 -136.10687804 93.30417579 C-135.21744038 87.08015724 -134.32478567 80.85660496 -133.43024445 74.63331795 C-133.05810275 72.04337312 -132.68655703 69.45334256 -132.3156662 66.86321831 C-130.38065358 53.36894365 -128.38251778 39.90571777 -125.87890625 26.50390625 C-124.84078796 26.47609573 -123.80266968 26.44828522 -122.73309326 26.41963196 C-113.08749275 26.16029578 -103.44303744 25.87236246 -93.79888916 25.56384277 C-92.18422552 25.51343747 -90.56941987 25.46761058 -88.95458984 25.42285156 C-62.73495207 24.66950782 -36.51291155 18.07370536 -13.62109375 5.140625 C-12.9470752 4.76204346 -12.27305664 4.38346191 -11.57861328 3.9934082 C-10.31523849 3.27123115 -9.06256559 2.52986454 -7.82373047 1.76635742 C-4.93655616 0.09693933 -3.32666813 -0.57325217 0 0 Z M-8.58959961 22.2980957 C-31.58357803 33.78229627 -56.95218927 41.25886871 -82.75390625 41.8203125 C-83.96880737 41.85148415 -83.96880737 41.85148415 -85.20825195 41.88328552 C-87.76506049 41.94804281 -90.32196106 42.00731819 -92.87890625 42.06640625 C-94.62500906 42.10966191 -96.37110297 42.15327829 -98.1171875 42.19726562 C-102.37098495 42.30431751 -106.62492568 42.40443592 -110.87890625 42.50390625 C-113.40302128 55.19688199 -115.34070477 67.94130107 -117.171875 80.75 C-117.48233343 82.90629187 -117.79294507 85.06256169 -118.10369873 87.21881104 C-118.92760299 92.94613699 -119.74593488 98.67424422 -120.56211472 104.40267563 C-121.06754025 107.94936376 -121.57413332 111.49588377 -122.08084106 115.04238892 C-126.2230973 144.06339058 -130.26077338 173.09216664 -133.81640625 202.19140625 C-133.89942867 202.86764416 -133.9824511 203.54388206 -134.06798935 204.24061203 C-134.60586171 208.62296104 -135.13449841 213.00632899 -135.65625 217.390625 C-135.78360535 218.44807922 -135.91096069 219.50553345 -136.04217529 220.59503174 C-136.92209779 227.53387167 -136.92209779 227.53387167 -136.87890625 234.50390625 C-134.85746205 237.00306133 -134.85746205 237.00306133 -131.94140625 239.12890625 C-131.40708984 239.55002686 -130.87277344 239.97114746 -130.32226562 240.4050293 C-128.52753639 241.79971319 -126.70887405 243.15583154 -124.87890625 244.50390625 C-124.24710449 244.97103027 -123.61530273 245.4381543 -122.96435547 245.91943359 C-91.33999945 269.10119494 -56.88629041 288.10784883 -22.50390625 306.81640625 C-21.48079346 307.37416748 -20.45768066 307.93192871 -19.40356445 308.5065918 C-17.98756958 309.27289917 -17.98756958 309.27289917 -16.54296875 310.0546875 C-15.7123291 310.50497314 -14.88168945 310.95525879 -14.02587891 311.41918945 C-8.05862873 314.43402827 -1.40258706 314.60871012 5.12109375 313.50390625 C9.92537655 311.76215641 14.22920461 309.40385336 18.66357422 306.88183594 C21.40707461 305.34355696 24.18299601 303.87830447 26.96875 302.41796875 C43.0068542 293.97712092 58.62088259 284.8900467 74.12109375 275.50390625 C75.30076351 274.79131178 76.48045119 274.07874696 77.66015625 273.36621094 C81.15273126 271.25455096 84.6377085 269.13069423 88.12109375 267.00390625 C89.16458984 266.36984863 90.20808594 265.73579102 91.28320312 265.08251953 C98.14350608 260.86513833 104.67252692 256.32458358 111.12109375 251.50390625 C111.8682666 250.95105957 112.61543945 250.39821289 113.38525391 249.82861328 C115.40642837 248.33118582 117.42100403 246.82534489 119.43359375 245.31640625 C120.42842773 244.57487305 120.42842773 244.57487305 121.44335938 243.81835938 C122.7408133 242.84622954 124.0267474 241.85848946 125.29931641 240.85400391 C127.12109375 239.50390625 127.12109375 239.50390625 128.97021484 238.55615234 C131.02855986 237.50479776 131.02855986 237.50479776 133.12109375 234.50390625 C133.52244864 230.26307495 132.99910486 226.18174042 132.44573975 221.98052979 C132.09561185 219.30951273 131.7909251 216.63557203 131.49072266 213.95849609 C130.69790754 207.0284509 129.8186708 200.11018721 128.93359375 193.19140625 C128.76824127 191.88984589 128.60288879 190.58828552 128.43252563 189.24728394 C124.9750975 162.08562129 121.14569508 134.97551175 117.2795372 107.86948013 C116.81072282 104.58133896 116.34299861 101.29304402 115.87539673 98.00473022 C115.12820035 92.75461434 114.3765947 87.50514665 113.62155533 82.25615311 C113.34241645 80.313058 113.06431839 78.36981303 112.78738022 76.42640305 C111.16572418 65.06029365 109.35069005 53.76744818 107.12109375 42.50390625 C105.47172318 42.48682114 105.47172318 42.48682114 103.78903198 42.46939087 C67.43403489 42.06473222 34.51101849 37.62456278 1.75 20.76953125 C-2.61673128 18.66727132 -4.39816628 20.19239169 -8.58959961 22.2980957 Z " fill="currentColor" transform="translate(257.87890625,45.49609375)"/>
<path d="M0 0 C6.79335397 4.33872173 10.60998176 10.91964022 14.109375 17.984375 C14.52108948 18.79505432 14.93280396 19.60573364 15.35699463 20.440979 C16.66382943 23.01864102 17.95735616 25.60269718 19.25 28.1875 C20.52519087 30.71599631 21.80316001 33.24307411 23.0814209 35.77001953 C23.93542476 37.45861252 24.78836603 39.14774332 25.64025879 40.83740234 C29.78837745 49.05079565 34.08133151 57.18526272 38.38293457 65.31896973 C41.11956426 70.50902636 43.80633906 75.72505496 46.5 80.9375 C50.18719155 88.0636971 53.88127093 95.1854206 57.6340332 102.27734375 C58.84654898 104.57117648 60.0510428 106.86906274 61.25390625 109.16796875 C62.71359801 111.95716865 64.20284021 114.72714362 65.71484375 117.48828125 C77.23162151 138.85888786 80.89735616 165.6098296 75 189.4375 C67.71691726 212.75365889 52.30901539 233.2081649 30.61108398 244.70825195 C9.88130644 255.24977987 -14.60576231 258.40433102 -37.109375 251.625 C-38.22828125 251.233125 -39.3471875 250.84125 -40.5 250.4375 C-41.53640625 250.086875 -42.5728125 249.73625 -43.640625 249.375 C-66.98819588 240.57382145 -83.51426408 222.82816308 -93.65869141 200.42431641 C-101.43018473 182.07132375 -102.66756146 157.28326916 -97.5 137.9375 C-97.24355713 136.96659424 -97.24355713 136.96659424 -96.98193359 135.97607422 C-94.52067875 128.08936623 -90.25910118 120.76602657 -86.5 113.4375 C-85.71215519 111.89197321 -84.92472713 110.34623392 -84.13769531 108.80029297 C-82.06531774 104.73400771 -79.98475383 100.67197582 -77.90087891 96.61157227 C-76.63178508 94.1382235 -75.36464543 91.66388054 -74.09765625 89.18945312 C-69.05202331 79.34587576 -63.93959368 69.53970778 -58.77685547 59.75708008 C-55.82561492 54.16383694 -52.91117598 48.55167478 -50 42.9375 C-48.35747103 39.77755228 -46.71417955 36.61800194 -45.07080078 33.45849609 C-44.05020441 31.49566434 -43.03030789 29.53246846 -42.01123047 27.56884766 C-40.65671119 24.9607815 -39.29774832 22.35508163 -37.9375 19.75 C-37.54433594 18.99074219 -37.15117187 18.23148438 -36.74609375 17.44921875 C-30.68658154 5.87723362 -30.68658154 5.87723362 -25.4375 2.125 C-24.43009766 1.38830078 -24.43009766 1.38830078 -23.40234375 0.63671875 C-17.15315811 -3.30270628 -6.61416656 -3.0052718 0 0 Z M-16.50976562 17.61181641 C-18.43688235 20.34788718 -20.01096641 23.04446284 -21.53125 26.0234375 C-22.08828613 27.1072168 -22.64532227 28.19099609 -23.21923828 29.30761719 C-23.80688965 30.46422852 -24.39454102 31.62083984 -25 32.8125 C-25.62290908 34.02799032 -26.2464533 35.24315535 -26.87060547 36.45800781 C-28.14073789 38.93091436 -29.40855326 41.40498698 -30.67480469 43.87988281 C-33.2994497 48.99576392 -35.95998459 54.09256541 -38.625 59.1875 C-39.60685894 61.06766233 -40.58862999 62.94787055 -41.5703125 64.828125 C-42.05274414 65.75173828 -42.53517578 66.67535156 -43.03222656 67.62695312 C-45.02134748 71.43579543 -47.00889682 75.24545673 -48.99633789 79.05517578 C-49.99541312 80.97027274 -50.99459857 82.8853122 -51.99389648 84.80029297 C-54.53268538 89.66551005 -57.07018522 94.53139273 -59.60546875 99.3984375 C-60.11658203 100.37901123 -60.62769531 101.35958496 -61.15429688 102.36987305 C-62.16835025 104.31611275 -63.18138797 106.26288202 -64.19335938 108.21020508 C-66.46448985 112.57310688 -68.75245099 116.9231631 -71.11328125 121.23828125 C-81.90781422 141.00237219 -87.16948046 162.3917512 -80.94213867 184.69091797 C-77.50229583 195.9400977 -72.17969385 205.54089535 -64.5 214.4375 C-63.92894531 215.10394531 -63.35789062 215.77039063 -62.76953125 216.45703125 C-49.57550695 230.72008097 -31.62855716 237.25876729 -12.5 238.4375 C5.7309995 238.80778314 22.86268081 231.20945575 36.5 219.4375 C37.16644531 218.86644531 37.83289063 218.29539062 38.51953125 217.70703125 C52.98007779 204.33031266 59.67727367 185.82298906 60.5 166.4375 C60.93356382 143.83256647 50.71903392 125.30386828 40.40234375 105.921875 C37.21328941 99.91974378 34.09755025 93.88008743 30.98144531 87.83990479 C26.12138308 78.41930281 21.24858872 69.00637443 16.28613281 59.63916016 C13.81965119 54.97447015 11.39358074 50.29024356 8.98828125 45.59375 C8.05087223 43.76836843 7.11311993 41.94316352 6.17532349 40.11798096 C5.27824216 38.3676058 4.38694998 36.61426741 3.49584961 34.86083984 C-1.54500487 24.51475196 -1.54500487 24.51475196 -8.5 15.4375 C-13.06759591 14.8248921 -13.06759591 14.8248921 -16.50976562 17.61181641 Z " fill="currentColor" transform="translate(267.5,81.5625)"/>
<path d="M0 0 C15.84 0 31.68 0 48 0 C48 10.56 48 21.12 48 32 C58.56 32 69.12 32 80 32 C80 47.84 80 63.68 80 80 C69.44 80 58.88 80 48 80 C48 90.56 48 101.12 48 112 C32.16 112 16.32 112 0 112 C0 101.44 0 90.88 0 80 C-10.56 80 -21.12 80 -32 80 C-32 64.16 -32 48.32 -32 32 C-21.44 32 -10.88 32 0 32 C0 21.44 0 10.88 0 0 Z M16 16 C16 26.56 16 37.12 16 48 C5.44 48 -5.12 48 -16 48 C-16 53.28 -16 58.56 -16 64 C-5.44 64 5.12 64 16 64 C16 74.56 16 85.12 16 96 C21.28 96 26.56 96 32 96 C32 85.44 32 74.88 32 64 C42.56 64 53.12 64 64 64 C64 58.72 64 53.44 64 48 C53.44 48 42.88 48 32 48 C32 37.44 32 26.88 32 16 C26.72 16 21.44 16 16 16 Z " fill="currentColor"  transform="translate(232,176)"/>
</symbol>

<symbol id="icon-guarantee" viewBox="0 0 512 512">

<path d="M0 0 C0.95036133 0.42289307 1.90072266 0.84578613 2.87988281 1.28149414 C3.7281665 1.66337891 4.5764502 2.04526367 5.45043945 2.4387207 C16.45494254 6.70360812 25.914944 2.84334129 36.16113281 -1.58276367 C39.25928927 -2.95210745 42.35113376 -4.3327539 45.42602539 -5.75366211 C55.93332639 -10.56787314 67.05020469 -14.63238196 78.66113281 -11.44506836 C93.02266628 -6.10008025 100.22315417 6.14991473 107.09472656 19.14086914 C113.772956 31.69146346 117.89225654 38.95990672 131.90722656 43.39086914 C136.54298955 44.57378797 141.20602383 45.50811055 145.90722656 46.39086914 C159.08168775 48.86467626 171.87059974 51.76497871 180.90722656 62.39086914 C188.80282615 74.64135579 187.61275618 88.54389349 185.90722656 102.45336914 C183.51538827 119.07064846 183.51538827 119.07064846 188.90722656 134.39086914 C191.73733615 137.89454481 194.78719429 141.1452317 197.90722656 144.39086914 C208.99004949 156.10318115 219.85933241 168.48423397 219.90722656 185.39086914 C218.70242903 200.94847204 206.16320064 212.79419441 195.98144531 223.47680664 C187.77493239 232.15747364 184.39151501 237.78706395 184.56103516 249.95947266 C184.76011397 255.73609854 185.4400623 261.42909485 186.18603516 267.15649414 C187.72124896 279.28160718 188.5559182 291.93288874 181.47363281 302.46118164 C178.70300017 305.87437995 175.49872119 308.853831 171.90722656 311.39086914 C171.24722656 311.39086914 170.58722656 311.39086914 169.90722656 311.39086914 C177.0731201 324.46779928 184.51469616 337.37008579 192.05761719 350.23266602 C193.94451342 353.45453635 195.82529948 356.67989776 197.70410156 359.90649414 C198.63464355 361.50436768 198.63464355 361.50436768 199.58398438 363.13452148 C200.76071327 365.15550767 201.9371658 367.17665481 203.11328125 369.19799805 C203.6537207 370.12531738 204.19416016 371.05263672 204.75097656 372.00805664 C205.27127441 372.90282715 205.79157227 373.79759766 206.32763672 374.71948242 C207.40569254 376.54267976 208.50539171 378.3532088 209.62353516 380.15209961 C210.1683252 381.0301123 210.71311523 381.908125 211.27441406 382.81274414 C211.76538574 383.58972656 212.25635742 384.36670898 212.76220703 385.16723633 C214.67685571 388.88549222 214.61587957 391.28068171 213.90722656 395.39086914 C212.08596834 398.02157546 210.82303426 399.0715879 207.81689453 400.11962891 C203.61255096 400.51155924 200.07816469 399.40983289 196.04003906 398.29321289 C195.16942841 398.06187149 194.29881775 397.83053009 193.40182495 397.59217834 C190.6091284 396.84770908 187.82071072 396.08844738 185.03222656 395.32836914 C183.22650778 394.84363526 181.42051996 394.35990244 179.61425781 393.87719727 C175.96233344 392.90034254 172.31187031 391.91825359 168.66210938 390.93334961 C159.09306963 388.3589853 149.49904364 385.87874825 139.90722656 383.39086914 C139.7009111 384.16903488 139.49459564 384.94720062 139.2820282 385.74894714 C137.33346319 393.0928324 135.37744535 400.43467263 133.4130888 407.77434826 C132.40352872 411.54754367 131.39683737 415.32145545 130.39672852 419.09716797 C129.43092086 422.74295394 128.45754372 426.38664191 127.47895241 430.02901649 C127.1074851 431.41690782 126.73872101 432.80552565 126.37274742 434.19487572 C125.8585088 436.14518347 125.33363552 438.09267767 124.80834961 440.04003906 C124.51300827 441.14812424 124.21766693 442.25620941 123.91337585 443.39787292 C121.49291594 450.59802445 121.49291594 450.59802445 117.90722656 452.39086914 C112.19521243 453.04634617 112.19521243 453.04634617 109.90722656 452.39086914 C104.48105682 447.13052462 101.19208494 440.17855925 97.53222656 433.64086914 C96.8298048 432.39681947 96.12666805 431.15317326 95.42285156 429.90991211 C94.33611749 427.99016302 93.24977409 426.070207 92.16558838 424.14901733 C89.73314574 419.83986094 87.27933751 415.54367062 84.80566406 411.25805664 C84.1549292 410.13052979 83.50419434 409.00300293 82.83374023 407.84130859 C81.55962173 405.64199695 80.28120409 403.44516974 78.99829102 401.25097656 C76.40813142 396.80867829 73.85310036 392.39316274 71.61425781 387.76196289 C71.28361328 387.10244629 70.95296875 386.44292969 70.61230469 385.76342773 C69.8094896 384.13539955 69.05258542 382.48492348 68.30175781 380.83227539 C64.99241791 377.45815232 61.77953081 377.1657631 57.23510742 376.20703125 C51.61340544 374.82830997 46.51605702 372.32086185 41.28222656 369.89086914 C24.45960679 361.71420318 24.45960679 361.71420318 6.41015625 363.23217773 C3.82844944 364.27500252 1.30725629 365.40522638 -1.21777344 366.57836914 C-3.0537324 367.39894875 -4.89098887 368.21663112 -6.72949219 369.03149414 C-8.08179932 369.63380859 -8.08179932 369.63380859 -9.46142578 370.24829102 C-16.45085263 373.28322492 -23.72571605 376.26981291 -31.10473633 378.1640625 C-34.71821172 379.64765706 -35.45143506 380.80061199 -37.24902344 384.21118164 C-38.05932007 385.70814575 -38.05932007 385.70814575 -38.88598633 387.23535156 C-39.73084595 388.85920776 -39.73084595 388.85920776 -40.59277344 390.51586914 C-41.82898349 392.8073523 -43.06731969 395.09768953 -44.30761719 397.38696289 C-44.62145859 397.97183975 -44.93529999 398.55671661 -45.25865173 399.15931702 C-48.42104817 405.04669401 -51.7684958 410.81804581 -55.15527344 416.57836914 C-55.72673096 417.55193359 -56.29818848 418.52549805 -56.88696289 419.52856445 C-58.03770509 421.48789678 -59.18931348 423.44672064 -60.34179688 425.4050293 C-62.15795471 428.50201902 -63.95839701 431.60777977 -65.75683594 434.71508789 C-66.93111318 436.73213254 -68.10558505 438.7490639 -69.28027344 440.76586914 C-69.82111572 441.7058374 -70.36195801 442.64580566 -70.91918945 443.61425781 C-71.42377686 444.47639893 -71.92836426 445.33854004 -72.44824219 446.22680664 C-72.8880542 446.98525879 -73.32786621 447.74371094 -73.78100586 448.52514648 C-75.09277344 450.39086914 -75.09277344 450.39086914 -78.09277344 452.39086914 C-83.7874637 453.0236125 -83.7874637 453.0236125 -86.09277344 452.39086914 C-91.0442492 447.78282266 -92.02262298 441.49685534 -93.65917969 435.18774414 C-93.97934555 433.99538147 -94.29951141 432.8030188 -94.62937927 431.57452393 C-95.4770182 428.41066371 -96.31424717 425.24430015 -97.14599609 422.07623291 C-98.31574502 417.63093463 -99.504649 413.19071514 -100.69187927 408.75006104 C-101.32155501 406.39044325 -101.94730074 404.02977206 -102.5684967 401.66790771 C-104.20468006 395.48993916 -105.99738149 389.42910021 -108.09277344 383.39086914 C-109.20031479 383.68821205 -109.20031479 383.68821205 -110.33023071 383.99156189 C-117.30306155 385.86302671 -124.27661454 387.73176574 -131.2509861 389.59747982 C-134.83618337 390.55665793 -138.42109638 391.51687185 -142.00537109 392.47949219 C-145.46711782 393.40916395 -148.92959607 394.33606349 -152.39258957 395.26107979 C-153.71087206 395.61372678 -155.02889208 395.96735653 -156.34663773 396.32200432 C-158.19832127 396.82016857 -160.05104699 397.31445407 -161.90380859 397.80859375 C-162.95637848 398.09061142 -164.00894836 398.37262909 -165.09341431 398.66319275 C-173.34332062 400.66470767 -173.34332062 400.66470767 -177.34277344 399.20336914 C-181.29005235 396.60175349 -181.29005235 396.60175349 -182.09277344 393.39086914 C-181.89853993 386.37071519 -178.55715835 381.46047788 -174.96777344 375.57836914 C-173.6843194 373.42916793 -172.40179913 371.27940887 -171.12011719 369.12915039 C-170.4547998 368.02007324 -169.78948242 366.91099609 -169.10400391 365.76831055 C-165.84986027 360.30365614 -162.69372543 354.78334528 -159.53027344 349.26586914 C-154.11488548 339.84626464 -148.62606363 330.4734412 -143.03979492 321.15405273 C-142.28098022 319.88102295 -142.28098022 319.88102295 -141.50683594 318.58227539 C-141.06291504 317.84178955 -140.61899414 317.10130371 -140.16162109 316.33837891 C-138.95628116 314.28009026 -138.95628116 314.28009026 -138.09277344 311.39086914 C-138.77339844 311.22586914 -139.45402344 311.06086914 -140.15527344 310.89086914 C-146.86576747 307.46423389 -150.92598508 301.09613684 -153.37402344 294.12133789 C-155.61004172 285.62689888 -155.11549967 277.45209932 -154.15527344 268.82836914 C-151.07197628 249.04924474 -151.07197628 249.04924474 -156.85839844 230.87133789 C-161.07327384 226.19223671 -165.32227921 221.55596204 -169.67480469 217.00415039 C-180.20568141 205.94860366 -187.51497146 195.67575542 -187.37011719 180.03149414 C-186.19778282 164.64254166 -173.77558031 153.52789602 -163.78027344 142.94165039 C-161.81383133 140.80761379 -159.93469234 138.63284282 -158.09277344 136.39086914 C-157.3 135.4743457 -157.3 135.4743457 -156.49121094 134.53930664 C-149.05388522 124.11043091 -153.02769784 107.03338817 -154.43725586 95.13574219 C-155.82209803 82.78875366 -155.25412378 70.73826987 -147.40527344 60.57836914 C-136.80931053 49.40682306 -118.61438314 47.04014957 -104.16259766 44.26586914 C-94.48631477 42.32223483 -87.8934946 39.60510465 -82.09277344 31.39086914 C-80.31775283 28.67718682 -78.68933731 25.90001758 -77.09277344 23.07836914 C-76.44223999 21.95579712 -76.44223999 21.95579712 -75.77856445 20.81054688 C-73.97163558 17.69188148 -72.18829785 14.56213879 -70.43261719 11.41430664 C-64.91727205 1.73556726 -57.71987813 -7.45170622 -46.97949219 -11.38256836 C-30.65574118 -15.84767965 -14.48922776 -6.49867313 0 0 Z M-51.13964844 13.17211914 C-54.64162056 18.37549885 -57.76805123 23.80005592 -60.86621094 29.25024414 C-61.34026367 30.08152832 -61.81431641 30.9128125 -62.30273438 31.76928711 C-63.2199321 33.38751761 -64.12747718 35.01127254 -65.0234375 36.64135742 C-72.40467402 49.76571881 -80.87063876 55.96338509 -95.24902344 60.13696289 C-101.96862915 61.96089661 -108.82087564 63.26321249 -115.66699219 64.51586914 C-124.79296807 66.26390944 -131.69767437 68.54345231 -137.09277344 76.39086914 C-139.61560079 84.00725298 -138.12253228 92.74619564 -137.09277344 100.51586914 C-134.8976203 117.59014129 -134.5193362 132.93550058 -145.09277344 147.39086914 C-148.19075002 151.01237975 -151.41648338 154.48826566 -154.70556641 157.93579102 C-166.05917905 168.92443489 -166.05917905 168.92443489 -171.33496094 183.27368164 C-170.18873489 193.29391577 -161.73555633 200.52247352 -155.09277344 207.39086914 C-142.81010727 220.31487705 -135.64969358 231.52252007 -135.7980957 249.69873047 C-135.94942484 255.633322 -136.60957377 261.46347193 -137.36962891 267.34619141 C-139.23616666 280.81545538 -139.23616666 280.81545538 -135.09277344 293.39086914 C-127.8760197 300.60762288 -116.56578925 301.61781216 -106.94433594 303.76196289 C-105.85685059 304.01018799 -104.76936523 304.25841309 -103.64892578 304.51416016 C-101.49910466 305.00295791 -99.34584244 305.47693945 -97.18896484 305.93359375 C-85.13856183 308.66971712 -75.0699397 313.93567521 -68.09277344 324.39086914 C-65.21995141 329.16252094 -62.50485889 334.01966665 -59.87255859 338.92773438 C-55.27120785 347.44660611 -50.08692517 356.89379328 -41.09277344 361.39086914 C-30.32982054 362.14451136 -19.88517444 356.03777014 -10.37792969 351.69946289 C6.75570403 344.00956429 20.15509208 342.83557439 37.69580078 349.4987793 C42.85336324 351.57934159 47.90829167 353.90579755 52.94213867 356.26782227 C62.51538593 360.76825601 62.51538593 360.76825601 72.90722656 361.39086914 C81.69338515 356.81474488 86.19550931 348.54545808 90.78222656 340.14086914 C99.12549517 325.236001 106.38899243 313.63220681 122.90722656 307.39086914 C128.05116129 305.98537346 133.24694067 304.89045035 138.46972656 303.82836914 C154.95871481 301.40411053 154.95871481 301.40411053 167.90722656 292.39086914 C171.40789218 283.81423837 169.99784522 274.72766026 168.90722656 265.76586914 C166.88754633 248.67571527 166.16377089 232.7387632 177.29785156 218.40258789 C181.20124106 213.89732846 185.33702515 209.6213576 189.45581055 205.3137207 C195.34150166 199.08662529 200.52600751 192.99493265 203.03222656 184.64086914 C202.65140067 174.73939581 194.96198951 167.45413639 188.59472656 160.57836914 C176.881359 147.90783161 167.704307 137.09309612 167.71972656 119.14086914 C167.71908203 118.35309082 167.7184375 117.5653125 167.71777344 116.75366211 C167.76580188 111.27951101 168.1965283 105.94111267 168.90722656 100.51586914 C171.04750253 86.48462718 171.04750253 86.48462718 166.90722656 73.39086914 C160.6110795 66.07372526 150.25759204 65.08907083 141.23144531 63.17211914 C140.23040771 62.95942383 139.22937012 62.74672852 138.19799805 62.52758789 C136.2192497 62.11325022 134.23834124 61.70905554 132.25512695 61.31665039 C118.63205041 58.51711462 107.7771637 53.61878687 99.91894531 41.73071289 C96.6321369 36.2739727 93.49772336 30.72693561 90.43334961 25.14233398 C84.17157448 13.22103952 84.17157448 13.22103952 73.90722656 5.39086914 C65.92484341 3.92574818 59.08450427 7.27250041 51.90722656 10.39086914 C51.0794873 10.74987305 50.25174805 11.10887695 49.39892578 11.47875977 C48.50318848 11.86741211 47.60745117 12.25606445 46.68457031 12.65649414 C45.30253418 13.25409546 45.30253418 13.25409546 43.89257812 13.86376953 C42.06438321 14.65742308 40.23934224 15.45839259 38.41796875 16.26757812 C25.01105708 22.13657364 11.95783251 23.60763265 -1.97949219 18.24829102 C-8.69369682 15.5241359 -15.3166221 12.58581606 -21.93261719 9.63305664 C-33.29493243 4.62471438 -42.88138599 1.95096864 -51.13964844 13.17211914 Z M-121.09277344 317.39086914 C-125.42284924 324.79510694 -129.74488516 332.20401147 -134.06005859 339.61694336 C-134.74707327 340.79704942 -135.43424708 341.97706286 -136.12158203 343.15698242 C-138.47100408 347.19047377 -140.81428928 351.22747437 -143.15527344 355.26586914 C-143.77345947 356.32725098 -144.39164551 357.38863281 -145.02856445 358.48217773 C-148.61606189 364.68273008 -151.96209771 370.94818141 -155.09277344 377.39086914 C-148.37211496 376.13150502 -141.79744181 374.58040806 -135.20996094 372.75415039 C-133.36509571 372.25411151 -131.5200377 371.75478346 -129.67480469 371.25610352 C-126.81163972 370.47942266 -123.94995785 369.69842608 -121.09130859 368.90527344 C-118.3009968 368.13310418 -115.50615118 367.37971101 -112.70996094 366.62915039 C-111.86392303 366.38965164 -111.01788513 366.15015289 -110.14620972 365.90339661 C-104.70825524 364.46414938 -100.63099728 364.34822551 -95.09277344 365.39086914 C-92.97430117 372.27928976 -91.05170099 379.19989185 -89.24511719 386.17602539 C-88.71750572 388.18979774 -88.1894999 390.2034668 -87.66113281 392.21704102 C-86.83883586 395.35660789 -86.01904639 398.49674471 -85.20581055 401.63867188 C-84.41372041 404.69475465 -83.61157606 407.7480468 -82.80761719 410.80102539 C-82.56486557 411.74881363 -82.32211395 412.69660187 -82.07200623 413.67311096 C-81.84159134 414.54169235 -81.61117645 415.41027374 -81.3737793 416.30517578 C-81.17409042 417.07221329 -80.97440155 417.83925079 -80.7686615 418.62953186 C-80.24048925 420.59819258 -80.24048925 420.59819258 -78.09277344 421.39086914 C-77.49758911 420.31325317 -77.49758911 420.31325317 -76.89038086 419.21386719 C-68.76841442 404.52026782 -60.58019403 389.87771385 -52.09277344 375.39086914 C-54.514699 372.89974571 -56.86938608 370.55986356 -59.64355469 368.46118164 C-62.54842055 366.00571289 -64.25328728 363.48318676 -66.28027344 360.26586914 C-66.65901611 359.66766357 -67.03775879 359.06945801 -67.42797852 358.453125 C-71.02893897 352.67938662 -74.30057797 346.71882407 -77.46655273 340.69702148 C-82.32067434 331.65775305 -87.27889203 326.04250628 -97.09277344 322.39086914 C-101.26514065 321.2232739 -105.45935552 320.36744415 -109.71777344 319.57836914 C-110.81734375 319.36245117 -111.91691406 319.1465332 -113.04980469 318.92407227 C-115.72856511 318.39996697 -118.40912202 317.88920661 -121.09277344 317.39086914 Z M114.40332031 333.30102539 C110.39268387 338.72608582 107.17306863 344.47223218 103.96972656 350.39086914 C98.71210704 360.04638414 93.39856884 368.45878021 83.90722656 374.39086914 C85.37200272 378.33376287 87.22394872 381.86867348 89.32128906 385.51196289 C89.6546225 386.09317398 89.98795593 386.67438507 90.33139038 387.27320862 C91.39529161 389.12669816 92.46363516 390.97758046 93.53222656 392.82836914 C94.22653975 394.03587739 94.92055251 395.24355844 95.61425781 396.45141602 C97.00115787 398.86550036 98.38968002 401.27864074 99.77929688 403.69116211 C103.17051933 409.58233178 106.53800369 415.48710004 109.90722656 421.39086914 C112.10911618 420.57679812 112.10911618 420.57679812 112.65904236 418.31668091 C112.89426102 417.40417572 113.12947968 416.49167053 113.37182617 415.55151367 C113.64228256 414.52019318 113.91273895 413.48887268 114.19139099 412.42630005 C114.47789017 411.30343597 114.76438934 410.1805719 115.05957031 409.02368164 C115.6773316 406.67079677 116.29517262 404.31793284 116.91308594 401.96508789 C117.88157073 398.23719592 118.8466425 394.5084469 119.80932617 390.77905273 C120.73835141 387.19163352 121.67967433 383.60760755 122.62207031 380.02368164 C123.04878273 378.34545822 123.04878273 378.34545822 123.4841156 376.6333313 C123.89452843 375.07689407 123.89452843 375.07689407 124.31323242 373.48901367 C124.54924667 372.5749173 124.78526093 371.66082092 125.02842712 370.71902466 C125.97073111 368.22263 126.83117947 367.0380088 128.90722656 365.39086914 C134.78656164 363.36802009 140.12538262 365.50672497 145.85253906 367.17211914 C146.89997284 367.46445435 147.94740662 367.75678955 149.02658081 368.0579834 C152.36520525 368.99062436 155.69899827 369.93913652 159.03222656 370.89086914 C162.37281878 371.84168634 165.71424316 372.78874324 169.05929565 373.72375488 C171.1387305 374.30518023 173.21562309 374.89579196 175.2895813 375.49645996 C176.23090912 375.76003296 177.17223694 376.02360596 178.14208984 376.29516602 C178.96782501 376.53134644 179.79356018 376.76752686 180.64431763 377.01086426 C183.07667705 377.41932456 184.58766579 377.16553931 186.90722656 376.39086914 C181.95621297 367.71063543 176.99886901 359.03404358 172.03491211 350.36120605 C171.29210683 349.06334722 170.54942787 347.76541608 169.80688477 346.46740723 C167.40708731 342.27277368 165.00209911 338.08116001 162.59472656 333.89086914 C161.65391235 332.24658936 161.65391235 332.24658936 160.6940918 330.5690918 C159.81539429 329.04227783 159.81539429 329.04227783 158.91894531 327.48461914 C158.40807373 326.59452148 157.89720215 325.70442383 157.37084961 324.78735352 C155.99001651 322.52642646 154.62148378 320.4117297 152.90722656 318.39086914 C140.15062878 316.24925053 122.12104462 323.49851322 114.40332031 333.30102539 Z " fill="currentColor"  transform="translate(240.0927734375,35.609130859375)"/>
<path d="M0 0 C0.70543945 0.20367187 1.41087891 0.40734375 2.13769531 0.6171875 C17.88427439 5.24895474 32.74198499 13.03457005 45 24 C46.23943359 25.06154297 46.23943359 25.06154297 47.50390625 26.14453125 C66.6566332 42.84103062 81.07737773 65.11302158 87 90 C87.44472656 91.794375 87.44472656 91.794375 87.8984375 93.625 C94.94552417 125.14026369 88.90096524 159.6009352 72 187 C67.01837708 194.62069697 61.24231126 201.39049396 55 208 C54.26394531 208.81210937 53.52789062 209.62421875 52.76953125 210.4609375 C31.96310243 232.55687698 0.48119947 245.19471752 -29.5859375 246.203125 C-51.18875393 246.55539361 -71.60704841 242.79470348 -91 233 C-92.02480469 232.49855469 -93.04960937 231.99710938 -94.10546875 231.48046875 C-113.69088546 221.48886429 -130.40558797 205.65617914 -142 187 C-142.35642578 186.42878418 -142.71285156 185.85756836 -143.08007812 185.26904297 C-160.08714174 157.33893434 -164.59046596 122.38895098 -157.25390625 90.72265625 C-149.29344428 59.56781579 -129.34704409 30.94274946 -101.734375 14.1640625 C-90.65741828 7.65268741 -79.41035717 2.44514647 -67 -1 C-65.33130859 -1.47953125 -65.33130859 -1.47953125 -63.62890625 -1.96875 C-43.69482275 -6.68480919 -19.55157839 -5.96208132 0 0 Z M-105 38 C-105.7321875 38.57621094 -106.464375 39.15242188 -107.21875 39.74609375 C-127.49544403 56.52264417 -140.08338958 83.1593768 -143 109 C-144.76384338 138.88428394 -137.70929856 166.90713087 -118 190 C-117.35804688 190.78632813 -116.71609375 191.57265625 -116.0546875 192.3828125 C-99.38323154 212.00714627 -76.12027205 223.65101233 -51 228 C-49.081875 228.3403125 -49.081875 228.3403125 -47.125 228.6875 C-17.352254 231.65215903 11.17682859 222.65370395 34.3359375 203.94213867 C52.0331451 189.27573185 63.94661574 170.14826477 70 148 C70.31839844 146.86949219 70.63679687 145.73898438 70.96484375 144.57421875 C77.69294596 116.70065244 71.70752198 87.48924563 57.08203125 63.23046875 C54.04827548 58.52330923 50.63541883 54.25052224 47 50 C46.34064453 49.15888672 46.34064453 49.15888672 45.66796875 48.30078125 C29.1985454 27.31465986 1.40744723 15.74217012 -24.3515625 12.58984375 C-54.03162304 9.82521284 -81.86585515 19.57716274 -105 38 Z " fill="currentColor"  transform="translate(291,98)"/>
<path d="M0 0 C3.15600256 2.07631747 3.89160405 3.70333739 5.1875 7.25 C4.71710362 16.65792752 -8.4527314 25.52039348 -15.02978516 32.00927734 C-16.5324377 33.49359897 -18.03188165 34.98111204 -19.53125 36.46875 C-20.41361328 37.33951172 -21.29597656 38.21027344 -22.20507812 39.10742188 C-24.26610377 41.19197746 -26.18728058 43.3607176 -28.0925293 45.58813477 C-33.10864632 51.37041766 -38.57312232 56.71716695 -43.98828125 62.12109375 C-45.139484 63.27297135 -46.29053837 64.42499725 -47.44145203 65.5771637 C-49.83768555 67.97486213 -52.23569505 70.37076582 -54.63500977 72.76538086 C-57.71299316 75.83762882 -60.78641286 78.9143972 -63.85854816 81.99249172 C-66.22699342 84.36454233 -68.59780493 86.7342163 -70.96935081 89.10316658 C-72.10441708 90.2375655 -73.23874025 91.37270845 -74.37230873 92.50860405 C-75.94933529 94.08816085 -77.52951512 95.66449282 -79.1105957 97.23999023 C-80.00881546 98.1374144 -80.90703522 99.03483856 -81.83247375 99.9594574 C-85.02941618 102.96910825 -87.80906 103.83271505 -92.27050781 103.75808716 C-98.6595598 101.98359654 -103.36473211 95.8401968 -107.875 91.21484375 C-109.09132082 89.99696559 -110.30920175 88.78064372 -111.52856445 87.56581116 C-114.07435464 85.01975239 -116.60398222 82.45896187 -119.12255859 79.88598633 C-122.34648463 76.59395993 -125.60262656 73.33623571 -128.87084961 70.08824825 C-131.38743083 67.58170634 -133.88878283 65.06040814 -136.38555908 62.53415108 C-137.58083458 61.32735598 -138.78014816 60.12454625 -139.98358154 58.92588615 C-141.66452487 57.24605962 -143.32459593 55.54800426 -144.98046875 53.84350586 C-145.72530266 53.10982033 -145.72530266 53.10982033 -146.48518372 52.36131287 C-149.91726286 48.7675416 -150.84483492 45.93332754 -151 41 C-149.65437601 38.05244268 -148.91445456 36.45722728 -146 35 C-142.68504463 34.31928391 -141.18669651 34.11350716 -138 35 C-133.87246875 37.98081789 -130.44866617 41.62013663 -126.9375 45.28125 C-125.8969433 46.33674062 -124.8545964 47.3904691 -123.81054688 48.44250488 C-121.07667359 51.2068214 -118.36768172 53.99430969 -115.66326904 56.78741455 C-112.8956804 59.637063 -110.10510418 62.46400206 -107.31640625 65.29296875 C-101.85492057 70.84007225 -96.41953425 76.41186991 -91 82 C-85.86470541 77.70398022 -81.06689216 73.20074046 -76.35229492 68.44995117 C-75.62296753 67.71916351 -74.89364014 66.98837585 -74.14221191 66.23544312 C-72.57079601 64.66024273 -71.00053566 63.08388887 -69.43132591 61.50649071 C-66.95003653 59.01237927 -64.46558517 56.52145662 -61.9803009 54.03132629 C-56.71321885 48.75285383 -51.45008769 43.47045281 -46.1875 38.1875 C-40.07108118 32.0474978 -33.95306309 25.90910718 -27.83083534 19.77489662 C-25.37917281 17.31673564 -22.9305315 14.85559158 -20.48197937 12.39433289 C-18.9883774 10.89710064 -17.49463612 9.40000735 -16.00073242 7.90307617 C-15.3176149 7.21479233 -14.63449738 6.52650848 -13.93067932 5.81736755 C-13.30698456 5.19360229 -12.68328979 4.56983704 -12.04069519 3.9271698 C-11.49855472 3.38280871 -10.95641424 2.83844763 -10.39784527 2.27759075 C-7.20189532 -0.64341645 -4.17793726 -0.36016701 0 0 Z " fill="currentColor"  transform="translate(329,167)"/>
</symbol>

<symbol id="icon-siren" viewBox="0 0 512 512">
<path d="M0 0 C1.58435647 -0.00299579 3.16871222 -0.00639928 4.75306702 -0.01017761 C9.04059057 -0.01898107 13.32809414 -0.02135424 17.61562586 -0.0219934 C20.30062598 -0.0227062 22.98562109 -0.02484493 25.67061996 -0.02749062 C35.05596995 -0.03673336 44.44130577 -0.04082702 53.82666016 -0.04003906 C62.54480987 -0.0394392 71.26289752 -0.04997577 79.98103154 -0.06578273 C87.48963272 -0.0789065 94.99821374 -0.08422091 102.50682628 -0.08358365 C106.98071978 -0.08333 111.45455813 -0.0861071 115.92844009 -0.0967617 C120.14248718 -0.10652397 124.35642733 -0.10646685 128.57047844 -0.09924507 C130.10621105 -0.09820911 131.6419506 -0.10050239 133.17767143 -0.10660553 C158.67933586 -0.2012852 181.21799725 5.30083834 199.73779297 23.50073242 C200.60017578 24.37342773 201.46255859 25.24612305 202.35107422 26.14526367 C203.35074219 27.12946289 203.35074219 27.12946289 204.37060547 28.13354492 C218.72059768 43.26096335 222.78081059 63.0372733 225.38623047 82.94604492 C225.67024799 85.02991885 225.95572176 87.11359467 226.2424469 89.19709778 C226.90439785 94.02344099 227.55767506 98.85087248 228.20635986 103.67901611 C229.49672649 113.26967765 230.82875041 122.85452665 232.15917969 132.43969727 C234.55706821 149.72647643 236.93952497 167.01533161 239.31288719 184.30549431 C239.58627323 186.29708787 239.85966306 188.28868091 240.13305664 190.28027344 C240.33668947 191.76375296 240.33668947 191.76375296 240.5444361 193.27720177 C241.66153892 201.41301137 242.78275181 209.54825118 243.90469402 217.68339461 C244.99896735 225.61947695 246.09015453 233.55597978 247.17897564 241.49281198 C247.82415041 246.19524322 248.4706071 250.89748933 249.1203289 255.59929466 C249.72559154 259.9799627 250.32702558 264.36113929 250.92549324 268.74274063 C251.14500442 270.34495096 251.36589367 271.94697319 251.58827209 273.54878807 C251.89160678 275.73529404 252.18993969 277.92242718 252.48704529 280.10978699 C252.73888407 281.94179295 252.73888407 281.94179295 252.99581051 283.81080914 C253.33066795 286.9537333 253.41767339 289.98772674 253.35107422 293.14526367 C254.31932129 293.12955322 255.28756836 293.11384277 256.28515625 293.09765625 C259.89688716 293.04312383 263.50858207 293.00882949 267.12060547 292.98046875 C268.68023815 292.96543498 270.23982894 292.94500232 271.79931641 292.91894531 C274.04844537 292.88232156 276.29701269 292.86548346 278.54638672 292.85229492 C279.23725372 292.83681107 279.92812073 292.82132721 280.6399231 292.80537415 C286.4212321 292.80338999 290.26218365 294.14029957 294.44140625 298.15161133 C297.23863872 302.5366362 299.02068493 307.20878282 300.90576172 312.04370117 C301.32979279 313.11085358 301.75382385 314.17800598 302.19070435 315.27749634 C303.54398053 318.68859053 304.88522904 322.10426652 306.22607422 325.52026367 C307.11980487 327.7796951 308.01432835 330.03881309 308.90966797 332.29760742 C310.62914891 336.63718643 312.34093824 340.979683 314.04785156 345.32421875 C315.43775985 348.85408273 316.84713362 352.37352038 318.29882812 355.87841797 C318.58194855 356.56614288 318.86506897 357.2538678 319.1567688 357.96243286 C319.87613081 359.70182195 320.60435033 361.43754106 321.33349609 363.17285156 C323.46108121 369.38766653 323.51140863 374.73864415 320.66357422 380.64526367 C317.17679606 384.41475358 314.76252515 386.00447873 309.56944329 386.52246183 C308.05892154 386.5388059 306.54816734 386.53866724 305.03761387 386.52558041 C304.19958563 386.53024033 303.36155738 386.53490024 302.49813434 386.53970137 C299.67727379 386.55169533 296.85689097 386.54223899 294.036026 386.53294373 C291.99833251 386.53711471 289.96064134 386.54259093 287.9229545 386.54926354 C282.31341145 386.56376767 276.7040147 386.55945793 271.09446347 386.55209672 C265.04869449 386.54737963 259.00295783 386.55986194 252.9571991 386.57011414 C241.79451702 386.58633997 230.63188047 386.58874152 219.46919283 386.58380914 C209.15692515 386.5792547 198.84467488 386.57984773 188.53240776 386.58564949 C187.14996466 386.58640635 185.76752157 386.58716233 184.38507847 386.58791744 C182.30194728 386.58906261 180.21881609 386.59021249 178.13568492 386.59137668 C158.76461686 386.60208419 139.39355461 386.60680434 120.02248478 386.59890652 C119.2920332 386.59860934 118.56158162 386.59831217 117.80899515 386.59800599 C111.87693867 386.59555697 105.94488227 386.59294543 100.01282586 386.59032186 C76.87139737 386.58021853 53.73004142 386.58857543 30.58862305 386.61181641 C4.59724978 386.63787728 -21.39407981 386.65074011 -47.38546664 386.64362866 C-50.15579227 386.64291258 -52.92611791 386.64223819 -55.69644356 386.64158821 C-56.37858286 386.6414184 -57.06072215 386.64124859 -57.76353234 386.64107364 C-68.06923338 386.63876881 -78.37489391 386.64675636 -88.68058586 386.65987968 C-100.39820236 386.67477423 -112.11574011 386.67528119 -123.83336037 386.65780877 C-129.81481411 386.64926876 -135.79608618 386.64722231 -141.77753067 386.66246033 C-147.24946519 386.67622808 -152.72106105 386.67164665 -158.19297559 386.65222109 C-160.17609506 386.64843637 -162.15924115 386.65145354 -164.14233708 386.66183274 C-166.83184501 386.67491195 -169.52016828 386.66350071 -172.20962429 386.64583492 C-172.98497962 386.65548543 -173.76033495 386.66513595 -174.55918589 386.6750789 C-179.73518644 386.60496106 -182.64667687 385.38698995 -186.64892578 382.14526367 C-190.15067596 378.29333848 -190.08866177 374.39947972 -190.02645874 369.42349243 C-189.28032363 362.94458375 -186.59921792 357.04734232 -184.13720703 351.06323242 C-183.56492194 349.63654727 -182.99399818 348.20931537 -182.42436218 346.78157043 C-181.23309346 343.8074638 -180.02920612 340.83891346 -178.81518555 337.87402344 C-177.26575833 334.08850609 -175.74332761 330.29284153 -174.22951984 326.49296093 C-173.05517172 323.55106763 -171.86945898 320.61386415 -170.68004417 317.67803383 C-170.11470234 316.28023916 -169.55219161 314.88129574 -168.99267006 313.48116112 C-168.2072321 311.52228538 -167.40733377 309.56994454 -166.60327148 307.61865234 C-165.92709526 305.9563282 -165.92709526 305.9563282 -165.23725891 304.26042175 C-163.05972188 299.98967279 -160.53709716 296.24925159 -156.31811523 293.7824707 C-152.83943929 292.95201756 -149.49406128 292.89727013 -145.94189453 292.94995117 C-145.21649979 292.95278107 -144.49110504 292.95561096 -143.74372864 292.95852661 C-141.4411221 292.96966568 -139.13891351 292.99475801 -136.83642578 293.02026367 C-135.26937413 293.03030161 -133.70231635 293.03942604 -132.13525391 293.04760742 C-128.306326 293.06958437 -124.47769322 293.10407028 -120.64892578 293.14526367 C-120.60820355 292.44696379 -120.56748133 291.7486639 -120.52552509 291.02920341 C-119.81549709 280.43388885 -118.37436874 269.96308914 -116.93676758 259.4465332 C-116.65710414 257.38035001 -116.37774448 255.31412569 -116.09866333 253.24786377 C-115.34398727 247.66877494 -114.58437924 242.09036891 -113.82331443 236.51214838 C-113.34695037 233.01932023 -112.87157526 229.52635889 -112.39652443 226.0333519 C-110.7361497 213.82578955 -109.07143487 201.61882718 -107.40307617 189.41235352 C-105.85269147 178.06808031 -104.31235854 166.72247238 -102.7765891 155.37621224 C-101.45339959 145.6041618 -100.12278957 135.83313975 -98.78656512 126.06286323 C-97.99048606 120.24098085 -97.1974054 114.41872948 -96.41196251 108.59540176 C-95.67269438 103.11614097 -94.92414311 97.638225 -94.16870499 92.16117096 C-93.89451768 90.16189508 -93.62353868 88.16217588 -93.35617638 86.16197586 C-89.48702607 57.25761626 -89.48702607 57.25761626 -82.89892578 44.83276367 C-82.3835022 43.83587524 -82.3835022 43.83587524 -81.85766602 42.81884766 C-78.76551851 37.02256752 -75.09382664 31.98961068 -70.64892578 27.14526367 C-69.653125 26.01217773 -69.653125 26.01217773 -68.63720703 24.85620117 C-50.46561016 5.30745925 -25.69365242 -0.00970856 0 0 Z M-51.43798828 50.30541992 C-59.85255248 62.19368882 -61.89799844 74.91564942 -63.71533203 88.98120117 C-64.00005317 91.08553683 -64.28646768 93.18964389 -64.57435608 95.29354858 C-65.23284162 100.12275266 -65.8817914 104.95313256 -66.5256958 109.78430176 C-67.77234159 119.12038798 -69.0680527 128.44960489 -70.36328125 137.77905273 C-72.66309068 154.35594763 -74.946506 170.93503222 -77.2195797 187.51561356 C-77.48093496 189.42194951 -77.74229578 191.3282847 -78.00366211 193.23461914 C-78.13343244 194.18117898 -78.26320277 195.12773881 -78.39690554 196.10298228 C-79.46512864 203.89200778 -80.53801348 211.68038668 -81.61170477 219.46866 C-82.65973353 227.07263841 -83.70416447 234.6771056 -84.74586016 242.28195417 C-85.3627514 246.78493268 -85.98114327 251.28769233 -86.60337639 255.78993607 C-87.18295692 259.98421411 -87.75806997 264.17908059 -88.32974625 268.37444305 C-88.53934875 269.90692523 -88.75055173 271.43918951 -88.96349907 272.97121048 C-89.25432484 275.06532927 -89.53929503 277.1601671 -89.82286072 279.25527954 C-89.9833789 280.42407465 -90.14389708 281.59286976 -90.30927944 282.7970829 C-90.65759387 286.23071231 -90.64892578 289.69401261 -90.64892578 293.14526367 C13.30107422 293.14526367 117.25107422 293.14526367 224.35107422 293.14526367 C219.97857422 261.01151367 215.60607422 228.87776367 211.10107422 195.77026367 C209.72790039 185.66997559 208.35472656 175.5696875 206.93994141 165.16333008 C205.69356639 156.01209006 205.69356639 156.01209006 204.44659424 146.8609314 C203.89650739 142.82388893 203.34766388 138.78667965 202.79962158 134.74935913 C201.33894658 123.99222378 199.87096528 113.23623407 198.37115049 102.48447633 C197.83065976 98.60930877 197.2934242 94.73388437 196.77357483 90.85588837 C196.28727381 87.24483156 195.7819935 83.63703122 195.27001953 80.02954102 C195.1452058 79.06500818 195.02039207 78.10047535 194.89179611 77.10671425 C192.67029047 61.98876986 185.1085742 49.23345612 173.43310547 39.55541992 C161.57206136 30.80984706 148.42287011 29.40029804 134.2331543 29.51416016 C132.57554869 29.50900708 130.91794859 29.50171543 129.26036072 29.49247742 C124.80582886 29.474136 120.35190398 29.48678964 115.89739823 29.50656772 C111.21053897 29.52309145 106.52371403 29.51412279 101.83683777 29.50904846 C93.97340321 29.50454405 86.11020781 29.52029763 78.24682617 29.54833984 C69.18244865 29.5804177 60.11850138 29.58035757 51.05409318 29.56312507 C42.29482925 29.54721289 33.53572163 29.55402149 24.77646446 29.57106209 C21.06582107 29.57789739 17.35530431 29.57693671 13.64466286 29.56951714 C9.27032324 29.56180529 4.89646829 29.57413861 0.52221107 29.60136604 C-1.07401594 29.60819866 -2.67028867 29.60840352 -4.26651382 29.60115051 C-23.22720502 29.52497997 -39.07240983 35.37492891 -51.43798828 50.30541992 Z M-140.64892578 323.14526367 C-149.37254142 339.72306822 -149.37254142 339.72306822 -153.64892578 357.14526367 C-8.44892578 357.14526367 136.75107422 357.14526367 286.35107422 357.14526367 C282.09071215 345.78429816 277.7488219 334.45375772 273.35107422 323.14526367 C136.73107422 323.14526367 0.11107422 323.14526367 -140.64892578 323.14526367 Z " fill="currentColor"  transform="translate(189.64892578125,125.854736328125)"/>
<path d="M0 0 C14.52 0 29.04 0 44 0 C44.3891517 25.33655563 43.02806492 50.05743107 40.75506592 75.27380371 C40.3219592 80.11518859 39.90598121 84.95804718 39.48828125 89.80078125 C38.67499605 99.20200045 37.84215017 108.60132253 37 118 C27.1 118 17.2 118 7 118 C6.38271284 110.74569783 5.7655671 103.49138531 5.14953613 96.23697662 C4.86237891 92.85579245 4.57495327 89.47463168 4.28710938 86.09350586 C3.62340805 78.29647074 2.96615569 70.4989285 2.3135376 62.70095825 C2.01502993 59.17741136 1.70581133 55.65496301 1.39404297 52.13256836 C0.32788243 39.85930084 -0.26997669 27.75859416 -0.125 15.4375 C-0.08375 10.343125 -0.0425 5.24875 0 0 Z " fill="currentColor"  transform="translate(234,206)"/>
<path d="M0 0 C3.52460435 3.11476664 6.22798449 5.76326389 7.0703125 10.55078125 C7.34365159 15.97200651 6.30849313 19.16681879 2.6875 23.375 C-0.93142233 26.52018545 -4.67011056 28.78759001 -8.90625 31.01953125 C-9.53422485 31.35240646 -10.16219971 31.68528168 -10.8092041 32.02824402 C-12.80773094 33.08628491 -14.80995658 34.13708463 -16.8125 35.1875 C-18.77799088 36.22486938 -20.74269582 37.26371498 -22.70729065 38.30278015 C-24.00371157 38.98742381 -25.30102224 39.6703854 -26.59922791 40.35163879 C-29.75407969 42.00913143 -32.89312698 43.68757139 -36.00610352 45.42260742 C-37.15006592 46.05658447 -38.29402832 46.69056152 -39.47265625 47.34375 C-40.48207275 47.91158203 -41.49148926 48.47941406 -42.53149414 49.06445312 C-46.5587615 50.96229978 -49.99201906 51.46823911 -54.3125 50.375 C-59.12956073 48.0119136 -61.9494136 45.19206073 -64.3125 40.375 C-64.9792119 36.13501196 -64.81657828 32.60719136 -63.1875 28.625 C-57.40729024 21.68874829 -49.54882582 18.09602396 -41.6875 14 C-39.25586853 12.72502599 -36.82658039 11.44566654 -34.3984375 10.1640625 C-33.80536804 9.85196838 -33.21229858 9.53987427 -32.60125732 9.21832275 C-27.54732968 6.54118657 -22.62933071 3.67704769 -17.72509766 0.73583984 C-11.97459821 -2.50776306 -5.92420402 -2.9062133 0 0 Z " fill="currentColor"  transform="translate(493.3125,116.625)"/>
<path d="M0 0 C4.90481066 1.90078028 9.42481239 4.42860143 14 7 C14.90282715 7.5038623 15.8056543 8.00772461 16.73583984 8.52685547 C22.6216133 11.81741888 28.48784073 15.14086386 34.33837891 18.49365234 C37.57409461 20.32490953 40.84561056 22.0858921 44.1315918 23.82519531 C48.07150146 26.30250425 50.52621327 29.57863982 52 34 C52.39614654 39.24894167 51.86557317 42.55342094 49 47 C44.72064258 50.95840561 41.22838412 52.44573611 35.32861328 52.35302734 C30.58811687 51.63434861 26.58140789 49.11293386 22.4375 46.8125 C21.4489502 46.27802246 20.46040039 45.74354492 19.44189453 45.19287109 C17.35534825 44.05921497 15.27338688 42.91708444 13.19580078 41.76708984 C9.994406 39.99690685 6.77775856 38.25714584 3.55859375 36.51953125 C1.49629829 35.39002246 -0.56493548 34.25857261 -2.625 33.125 C-3.58994385 32.60268799 -4.5548877 32.08037598 -5.54907227 31.54223633 C-11.44682733 28.23943043 -15.90101176 25.19797649 -19 19 C-19.56350726 14.38108804 -19.4422879 10.90158688 -17.375 6.6875 C-12.24850543 0.88646668 -7.63898733 -1.60940089 0 0 Z " fill="currentColor"  transform="translate(31,115)"/>
<path d="M0 0 C0.72960937 0.04382813 1.45921875 0.08765625 2.2109375 0.1328125 C8.75466341 2.14463762 11.96110781 7.46152912 15.0625 13.125 C15.9099817 14.63437606 16.76044326 16.14208141 17.61328125 17.6484375 C18.08072754 18.4744043 18.54817383 19.30037109 19.02978516 20.15136719 C20.81760043 23.2038415 22.70242038 26.18212412 24.60546875 29.1640625 C25.2900415 30.25299805 25.97461426 31.34193359 26.67993164 32.46386719 C28.03450354 34.61418418 29.40679309 36.75346651 30.79858398 38.87988281 C34.97438343 45.59427163 36.99593365 50.92525673 35.625 58.875 C33.85152978 62.69478202 32.36550477 64.35836877 28.9375 66.75 C23.44687586 68.61474028 18.85581352 68.85655795 13.5 66.5 C5.68295582 59.36269879 0.74217429 49.24877256 -4.5625 40.1875 C-5.26721383 38.99132176 -5.97229046 37.79535719 -6.67773438 36.59960938 C-8.01139572 34.33762359 -9.3374655 32.07173874 -10.65966797 29.80297852 C-11.6687799 28.08047932 -12.68907682 26.36430095 -13.73486328 24.66381836 C-16.80907435 19.60785619 -17.32990711 15.66173708 -16.375 9.875 C-14.36295727 5.92277321 -12.20215629 3.14737405 -8.375 0.875 C-5.47247312 -0.03739769 -3.02838516 -0.244396 0 0 Z " fill="currentColor"  transform="translate(129.375,28.125)"/>
<path d="M0 0 C3.57997613 2.85169667 5.61268591 5.56978642 6.73046875 9.97265625 C7.46080811 19.256081 1.90465065 26.42012672 -2.78125 33.95703125 C-3.87649248 35.76211611 -4.97017675 37.56814711 -6.0625 39.375 C-20.9207844 63.77639289 -20.9207844 63.77639289 -26.78125 65.95703125 C-33.27013326 66.92607053 -37.53178337 65.84163655 -42.78125 61.95703125 C-46.31947389 58.19053485 -46.32758599 54.07162703 -46.27026367 49.12036133 C-45.3167742 42.95243165 -41.77645202 38.00724888 -38.46875 32.83203125 C-37.7327751 31.64436991 -36.99865809 30.45555535 -36.26635742 29.265625 C-34.8090495 26.90811043 -33.33728375 24.56076807 -31.85058594 22.22167969 C-30.02299438 19.33841467 -28.22778479 16.43860492 -26.4453125 13.52734375 C-25.4969717 12.00254822 -24.54662979 10.47899438 -23.59375 8.95703125 C-23.17375732 8.27624512 -22.75376465 7.59545898 -22.32104492 6.89404297 C-19.4805127 2.48538997 -16.7684161 0.19309998 -11.96875 -1.79296875 C-7.74032535 -2.27621728 -3.70911225 -2.17178283 0 0 Z " fill="currentColor"  transform="translate(392.78125,30.04296875)"/>
<path d="M0 0 C4.19279817 1.69496096 6.46477402 4.28770482 9 8 C9.94914974 10.95104952 10.13549412 13.66001358 10.16113281 16.74926758 C10.17074036 17.68736771 10.1803479 18.62546783 10.19024658 19.59199524 C10.19449646 20.59933212 10.19874634 21.60666901 10.203125 22.64453125 C10.20882507 23.6876799 10.21452515 24.73082855 10.22039795 25.80558777 C10.22983874 28.0120645 10.23637827 30.21855527 10.24023438 32.42504883 C10.24993363 35.7894773 10.28096368 39.15329312 10.3125 42.51757812 C10.31903111 44.66405888 10.32428116 46.810544 10.328125 48.95703125 C10.3404718 49.95829544 10.3528186 50.95955963 10.36553955 51.99116516 C10.34377217 58.86392458 9.53364428 63.76741937 5.1875 69.3125 C1.22893024 72.36625382 -1.96496967 73 -6.9375 73 C-11.64981239 72.23119664 -15.09569439 69.7441994 -18 66 C-20.43940706 60.44755605 -20.30622156 55.11146131 -20.30078125 49.16015625 C-20.30506638 48.11983749 -20.3093515 47.07951874 -20.31376648 46.00767517 C-20.31949535 43.81314825 -20.32002071 41.61860235 -20.31567383 39.42407227 C-20.31251398 36.07730548 -20.33599143 32.73142326 -20.36132812 29.38476562 C-20.36360136 27.24739694 -20.3643045 25.1100259 -20.36328125 22.97265625 C-20.372491 21.97766617 -20.38170074 20.98267609 -20.39118958 19.95753479 C-20.3427032 12.63177998 -19.37201515 7.7871178 -14.5 2.0625 C-10.21452194 -1.19188559 -5.10287616 -0.71003323 0 0 Z " fill="currentColor" transform="translate(261,0)"/>
<path d="M0 0 C2.8125 2.4375 2.8125 2.4375 5 5 C5.556875 5.61875 6.11375 6.2375 6.6875 6.875 C9.98422128 12.21254874 10.39101403 17.43210328 9.60546875 23.50390625 C7.88032899 30.61593404 3.3638109 35.29108804 -2.73046875 39.07421875 C-8.30430115 41.34788188 -15.90299843 41.11876181 -21.51953125 39.08984375 C-26.98546838 35.83954462 -30.88567464 31.63385994 -33.375 25.75 C-34.54765071 18.71409573 -33.95873733 12.07948947 -30 6 C-21.82423072 -3.2515284 -11.11066645 -6.00834323 0 0 Z " fill="currentColor"  transform="translate(268,342)"/>
</symbol>


</svg>
